<?xml version="1.0" encoding="UTF-8" standalone="no"?>
<!DOCTYPE svg PUBLIC "-//W3C//DTD SVG 1.1//EN" "http://www.w3.org/Graphics/SVG/1.1/DTD/svg11.dtd">
<svg width="100%" height="100%" viewBox="0 0 1104 1104" version="1.1" xmlns="http://www.w3.org/2000/svg" xmlns:xlink="http://www.w3.org/1999/xlink" xml:space="preserve" xmlns:serif="http://www.serif.com/" style="fill-rule:evenodd;clip-rule:evenodd;stroke-linejoin:round;stroke-miterlimit:2;">
    <g transform="matrix(1,0,0,1,-12307.909479,-2733.014997)">
        <g transform="matrix(1.677944,0,0,1.677944,15087.316266,-1800.060256)">
            <path d="M-1094.862,2797.862C-966.465,2926.258 -966.465,3134.742 -1094.862,3263.138C-1223.258,3391.535 -1431.742,3391.535 -1560.138,3263.138C-1688.535,3134.742 -1688.535,2926.258 -1560.138,2797.862C-1431.742,2669.465 -1223.258,2669.465 -1094.862,2797.862ZM-1530.992,3030.372L-1615.108,3030.377C-1621.929,3030.376 -1628.443,3033.213 -1633.088,3038.208C-1637.734,3043.203 -1640.092,3049.904 -1639.598,3056.707C-1633.182,3132.576 -1599.641,3200.846 -1548.733,3251.733C-1497.846,3302.641 -1429.576,3336.182 -1353.707,3342.598C-1346.904,3343.092 -1340.203,3340.734 -1335.208,3336.088C-1330.213,3331.443 -1327.376,3324.929 -1327.377,3318.108L-1327.371,3233.993L-1326.804,3233.992C-1270.928,3233.839 -1220.347,3211.185 -1183.645,3174.613L-1183.387,3174.355C-1146.815,3137.653 -1124.161,3087.072 -1124.008,3031.196L-1124.007,3030.629L-1039.892,3030.623C-1033.071,3030.624 -1026.557,3027.787 -1021.912,3022.792C-1017.266,3017.797 -1014.908,3011.096 -1015.402,3004.293C-1021.818,2928.424 -1055.359,2860.154 -1106.267,2809.267C-1157.154,2758.359 -1225.424,2724.818 -1301.293,2718.402C-1308.096,2717.908 -1314.797,2720.266 -1319.792,2724.912C-1324.787,2729.557 -1327.624,2736.071 -1327.623,2742.892L-1327.628,2827.008L-1328.196,2827.008C-1384.071,2827.165 -1434.649,2849.82 -1471.349,2886.394L-1471.606,2886.651C-1508.18,2923.351 -1530.835,2973.929 -1530.992,3029.804L-1530.992,3030.372ZM-1267.747,3089.996L-1268.004,3090.253C-1302.41,3124.856 -1324.496,3171.66 -1327.124,3223.544C-1327.194,3222.284 -1327.276,3221.027 -1327.369,3219.773L-1327.369,3036.501C-1327.369,3036.093 -1327.329,3035.695 -1327.253,3035.309C-1327.028,3034.188 -1326.491,3033.145 -1325.696,3032.304C-1324.855,3031.509 -1323.812,3030.972 -1322.691,3030.747C-1322.305,3030.671 -1321.907,3030.631 -1321.499,3030.631L-1138.227,3030.631C-1136.973,3030.724 -1135.716,3030.806 -1134.456,3030.876C-1186.34,3033.504 -1233.144,3055.59 -1267.747,3089.996ZM-1124.006,3030.612C-1180.193,3030.612 -1231.111,3007.805 -1268.046,2970.928C-1304.854,2934.002 -1327.612,2883.134 -1327.612,2827.007C-1215.16,2827.016 -1124.016,2918.16 -1124.006,3030.612ZM-1327.388,3233.994C-1439.84,3233.984 -1530.984,3142.84 -1530.993,3030.388C-1474.866,3030.388 -1423.998,3053.146 -1387.072,3089.954C-1350.195,3126.889 -1327.388,3177.807 -1327.388,3233.994ZM-1329.304,3028.696C-1330.145,3029.491 -1331.188,3030.028 -1332.309,3030.253C-1332.695,3030.329 -1333.093,3030.369 -1333.501,3030.369L-1516.773,3030.369C-1518.027,3030.276 -1519.284,3030.194 -1520.544,3030.124C-1468.66,3027.496 -1421.856,3005.41 -1387.253,2971.004L-1386.996,2970.747C-1352.59,2936.144 -1330.504,2889.34 -1327.876,2837.456C-1327.806,2838.716 -1327.724,2839.973 -1327.631,2841.227L-1327.631,3024.499C-1327.631,3024.907 -1327.671,3025.305 -1327.747,3025.691C-1327.972,3026.812 -1328.509,3027.855 -1329.304,3028.696Z" style="fill:white;"/>
        </g>
    </g>
</svg>
